/* XPM */
static char *result[] = {
/* columns rows colors chars-per-pixel */
"48 48 249 2 ",
"   c black",
".  c #000107",
"X  c #000213",
"o  c #000318",
"O  c #000317",
"+  c #00010C",
"@  c #000001",
"#  c #000004",
"$  c #000212",
"%  c #00020F",
"&  c #000003",
"*  c #000215",
"=  c #00073D",
"-  c #00094B",
";  c #000846",
":  c #000424",
">  c #000108",
",  c #000635",
"<  c #000949",
"1  c #00094A",
"2  c #000631",
"3  c #001DF5",
"4  c #001EFF",
"5  c #0019CF",
"6  c #000421",
"7  c #000002",
"8  c #00052A",
"9  c #0018CF",
"0  c #001DF7",
"q  c #000528",
"w  c #000316",
"e  c #00094F",
"r  c #0019D3",
"t  c #001EFD",
"y  c #0017C1",
"u  c #000638",
"i  c #00020E",
"p  c #000844",
"a  c #0017C3",
"s  c #001DF4",
"d  c #001EFE",
"f  c #0019D2",
"g  c #000D6B",
"h  c #001BEA",
"j  c #0019D5",
"k  c #000841",
"l  c #000A57",
"z  c #0019D8",
"x  c #001BE9",
"c  c #000A52",
"v  c #000106",
"b  c #00129C",
"n  c #364EFF",
"m  c #4157FF",
"M  c #122DFF",
"N  c #6375FF",
"B  c #000D73",
"V  c #000105",
"C  c #000E77",
"Z  c #213CFF",
"A  c #566AFF",
"S  c #102CFF",
"D  c #00129B",
"F  c #00031A",
"G  c #0016BB",
"H  c #001BE7",
"J  c #1C37FF",
"K  c #D9DEFF",
"L  c #D7DCFF",
"P  c #2F48FF",
"I  c #99A5FF",
"U  c #E3E7FF",
"Y  c #6A7CFF",
"T  c #00129A",
"R  c #000630",
"E  c #00020D",
"W  c #001ADE",
"Q  c #CAD0FF",
"!  c #DEE2FF",
"~  c #576BFF",
"^  c #687AFF",
"/  c #DFE2FF",
"(  c #9BA6FF",
")  c #0015B6",
"_  c #00073C",
"`  c #001DF1",
"'  c #0724FF",
"]  c #6678FF",
"[  c #7080FF",
"{  c #0C28FF",
"}  c #354DFF",
"|  c #939FFF",
" . c #1934FF",
".. c #00118F",
"X. c #000842",
"o. c #4F64FF",
"O. c #8694FF",
"+. c #1530FF",
"@. c #93A0FF",
"#. c #344CFF",
"$. c #0015B3",
"%. c #001CF0",
"&. c #000425",
"*. c #000843",
"=. c #000636",
"-. c #374FFF",
";. c #929EFF",
":. c #384FFF",
">. c #485DFF",
",. c #8B99FF",
"<. c #8A98FF",
"1. c #7B8AFF",
"2. c #1A35FF",
"3. c #95A1FF",
"4. c #5569FF",
"5. c #2942FF",
"6. c #1430FF",
"7. c #6B7CFF",
"8. c #94A0FF",
"9. c #0422FF",
"0. c #0F2CFF",
"q. c #BBC3FF",
"w. c #344BFF",
"e. c #8F9BFF",
"r. c #818FFF",
"t. c #3B51FF",
"y. c #D1D7FF",
"u. c #7081FF",
"i. c #8291FF",
"p. c #5D70FF",
"a. c #A6B0FF",
"s. c #4D62FF",
"d. c #6E7FFF",
"f. c #A2ADFF",
"g. c #334BFF",
"h. c #B8BFFF",
"j. c #919DFF",
"k. c #6476FF",
"l. c #8392FF",
"z. c #001DFA",
"x. c #0017C0",
"c. c #001AE0",
"v. c #0015B2",
"b. c #001ADB",
"n. c #0019CE",
"m. c #0017C2",
"M. c #001DF8",
"N. c #001DF2",
"B. c #0014A8",
"V. c #0018C9",
"C. c #001CEE",
"Z. c #00031E",
"A. c #00010E",
"S. c #0018D0",
"D. c #000740",
"F. c #00118D",
"G. c #0018CC",
"H. c #0019D1",
"J. c #000422",
"K. c #0013A8",
"L. c #000F82",
"P. c #00010A",
"I. c #0013A1",
"U. c #001088",
"Y. c #000526",
"T. c #001BEC",
"R. c #00010B",
"E. c #000C67",
"W. c #00052D",
"Q. c #000109",
"!. c #000A54",
"~. c #000C65",
"^. c #000D6F",
"/. c #00041E",
"(. c #000209",
"). c #000A51",
"_. c #000A56",
"`. c #000B5E",
"'. c #000639",
"]. c #000D6A",
"[. c #000524",
"{. c #00052B",
"}. c #000637",
"|. c #000B60",
" X c #000211",
".X c #00010D",
"XX c #000214",
"oX c #000210",
"OX c #00031B",
"+X c #000632",
"@X c #000634",
"#X c #00062F",
"$X c #00094E",
"%X c #0014A7",
"&X c #0014A9",
"*X c #0013A5",
"=X c #00052C",
"-X c #000F81",
";X c #000E7C",
":X c #001ADD",
">X c #00052E",
",X c #001BE8",
"<X c #001AD9",
"1X c #000420",
"2X c #001CED",
"3X c #D5DAFF",
"4X c #0E2BFF",
"5X c #A8B2FF",
"6X c #0D29FF",
"7X c #00031C",
"8X c #000F7F",
"9X c #1631FF",
"0X c #B6BEFF",
"qX c #BDC4FF",
"wX c #0018CE",
"eX c #00108A",
"rX c #2A43FF",
"tX c #1935FF",
"yX c #001089",
"uX c #243EFF",
"iX c #2D46FF",
"pX c #011FFF",
"aX c #2E46FF",
"sX c #1F39FF",
"dX c #A2AEFF",
"fX c #8795FF",
"gX c #9BA7FF",
"hX c #8493FF",
"jX c #0725FF",
"kX c #324AFF",
"lX c #6577FF",
"zX c #0926FF",
"xX c #6879FF",
"cX c #5B6FFF",
"vX c #0F2BFF",
"bX c #001087",
"nX c #001192",
"mX c #001191",
"MX c #001DF3",
"NX c #000947",
"BX c #00118C",
"VX c #000E75",
"CX c #0018CA",
"ZX c #00139F",
"AX c #0018CD",
"SX c #0013A4",
"DX c #FFFA00",
"FX c #000529",
"GX c #000426",
/* pixels */
"                                                                                                ",
"                                                                                                ",
"                                                                                                ",
"                                                                                                ",
"                  . X o o O + @                                 # $ o o o % &                   ",
"                  * = - - ; : @                                 > , < - 1 2 >                   ",
"              # O 2 3 4 4 4 5 6 % 7                         # O 8 9 4 4 4 0 q % 7               ",
"            7 w e r t 4 4 4 3 y u i                       7 w p a s 4 4 4 d f ; i               ",
"          @ % g h 4 4 4 4 4 4 4 j k 7                     % l z 4 4 4 4 4 4 4 x c 7             ",
"        @ v O b 4 n m 4 4 M N 4 4 B . &                 V O C 4 Z A 4 4 4 N S 4 D . #           ",
"        v F G H J K L P 4 I U Y 4 T R E                 O b W 4 Q ! ~ 4 ^ / ( 4 ) _ X 7         ",
"        + 1 ` 4 ' ] [ { 4 } |  .4 4 ..:                 X.5 4 4 o.O.+.4  .@.#.4 4 $., #         ",
"        + - %.4 4 4 4 4 4 4 4 4 4 4 ..&.                *.5 4 4 4 4 4 4 4 4 4 4 4 $.=.#         ",
"        + - %.4 -.;.:.>.,.4 <.1.4 4 ..&.                *.5 4 2.3.4.5.3.6.7.8.9.4 $.=.#         ",
"        + - %.0.q.w.e.r.t.y.u.i.p.4 ..&.                *.5 4 a.s.d.f.g.h.j.k.l.4 $.=.#         ",
"        + - %.4 4 4 4 4 4 4 4 4 4 4 ..&.                *.5 4 4 4 4 4 4 4 4 4 4 4 $.=.#         ",
"        + - %.z.x.4 4 c.v.4 4 c.b.4 ..&.                *.n.4 m.M.4 N.B.M.4 ` V.4 $.=.#         ",
"        + 1 C.B.Z.9 4 < A.S.4 l D.4 F.&.                *.G.H.J.K.4 L.P.I.4 U.Y.T.v.=.#         ",
"        R.*.E.W.Q.!.~.R.@ ; ^./.(.)._.6                 = `.'.Q.p ].[.  {.g }.V 1 |.2 #         ",
"        # O  XV & $  X@   Q.* Q.7 Q.O .X                * * v & i X #   V XXi @ . w oX@         ",
"                                                                                                ",
"                                                                                                ",
"                                                                                                ",
"                                                                                                ",
"                                        7 OX+X@X@X#X.X                                          ",
"                                      7 R.$X%X&X&X*XD.v @                                       ",
"                                    7 i =X-X4 4 4 4 ;X6 . @                                     ",
"                                  # w 1 :X4 4 4 4 4 4 :X_ i                                     ",
"                                  Q.>X,X4 4 4 4 4 4 4 4 <X1X@                                   ",
"                                Q.=X].2X} 3Xd.4 4Xf.5X6Xx W. X&                                 ",
"                                7X8X4 4 o.3X<.4 9X0XqX6.z.wX_ Q.                                ",
"                                : eX4 4 4 rX{ 4 4 tX .4 4 z.- +                                 ",
"                                : yX4 4 uXiXpX5. .S aX6.4 z.- +                                 ",
"                                : yX4 sXdXI k.3.i.fXgXhXjXz.- +                                 ",
"                                : yX4 kX-.4 lXzXiXxX4 cXvXz.- +                                 ",
"                                : yX4 4 4 4 4 4 4 4 4 4 4 z.- +                                 ",
"                                : bX4 nXmX4 MXNXBX4 N.`.r z.- +                                 ",
"                                : VXCX1X>XH.ZX. /.AXSX* ~.V.1 +                                 ",
"DXDXDXDXDXDXDX                  w R w    XFXXX@ V /.GX. V 1XR .                   DXDXDXDXDXDXDX",
"DXDXDXDXDXDXDX                  & . # @ & v 7   @ # V @ @ V . @                   DXDXDXDXDXDXDX",
"DXDXDXDXDXDXDX                                                                    DXDXDXDXDXDXDX",
"DXDXDXDXDXDXDX                                                                    DXDXDXDXDXDXDX",
"DXDXDXDXDXDXDX                                                                    DXDXDXDXDXDXDX",
"DXDXDXDXDXDXDX                                                                    DXDXDXDXDXDXDX",
"DXDXDXDXDXDXDX                                                                    DXDXDXDXDXDXDX",
"DXDXDXDXDXDXDX                                                                    DXDXDXDXDXDXDX",
"DXDXDXDXDXDXDX                                                                    DXDXDXDXDXDXDX",
"DXDXDXDXDXDXDX                                                                    DXDXDXDXDXDXDX"
};
