/* XPM */
static char *result[] = {
/* columns rows colors chars-per-pixel */
"48 48 117 2 ",
"   c black",
".  c #00010B",
"X  c #000527",
"o  c #000842",
"O  c #00094F",
"+  c #000A52",
"@  c #000001",
"#  c #000002",
"$  c #000004",
"%  c #00020E",
"&  c #000529",
"*  c red",
"=  c #000105",
"-  c #000316",
";  c #000318",
":  c #000420",
">  c #000634",
",  c #000630",
"<  c #000635",
"1  c #00073A",
"2  c #000843",
"3  c #00020F",
"4  c #00041E",
"5  c #000633",
"6  c #000845",
"7  c #00094B",
"8  c #00094C",
"9  c #00094E",
"0  c #000846",
"q  c #000636",
"w  c #8D9AFF",
"e  c #D3D8FF",
"r  c #D0D5FF",
"t  c #8693FF",
"y  c #7686FF",
"u  c #7D8CFF",
"i  c #000109",
"p  c #00020D",
"a  c #00041F",
"s  c #000739",
"d  c #9CA8FF",
"f  c #EEF0FF",
"g  c #E7EAFF",
"h  c #C3C9FF",
"j  c #5E71FF",
"k  c #AAB4FF",
"l  c #B8C1FF",
"z  c #687AFF",
"x  c #000422",
"c  c #D6DBFF",
"v  c #F0F2FF",
"b  c #FAFBFF",
"n  c #F3F5FF",
"m  c #DBDFFF",
"M  c #BFC6FF",
"N  c #000425",
"B  c #000740",
"V  c #D4D9FF",
"C  c #EDEFFF",
"Z  c #F6F7FF",
"A  c #F0F1FF",
"S  c #D9DDFF",
"D  c #BEC5FF",
"F  c #000950",
"G  c #97A3FF",
"H  c #C9CFFF",
"J  c #E1E4FF",
"K  c #DCE0FF",
"L  c #BCC3FF",
"P  c #8B99FF",
"I  c #5D70FF",
"U  c #A3AEFF",
"Y  c #AFB8FF",
"T  c #6577FF",
"R  c #8290FF",
"E  c #C0C8FF",
"W  c #7E8DFF",
"Q  c #6F80FF",
"!  c #7282FF",
"~  c #BDC5FF",
"^  c #BDC4FF",
"/  c #B7BFFF",
"(  c #B0BAFF",
")  c #BBC3FF",
"_  c #D5DAFF",
"`  c #DADEFF",
"'  c #C6CCFF",
"]  c #B8C0FF",
"[  c #E1E5FF",
"{  c #E5E8FF",
"}  c #E0E4FF",
"|  c #D2D8FF",
" . c #C5CCFF",
".. c #BEC6FF",
"X. c #CBD1FF",
"o. c #D1D7FF",
"O. c #D7DCFF",
"+. c #CDD3FF",
"@. c #E6E9FF",
"#. c #E4E7FF",
"$. c #DEE2FF",
"%. c #000631",
"&. c #000426",
"*. c #000215",
"=. c #00031A",
"-. c #000214",
";. c #000844",
":. c #000210",
">. c #000107",
",. c #000211",
"<. c #000106",
"1. c #00052D",
"2. c #00031C",
"3. c #00010D",
"4. c #00052B",
"5. c #000949",
"6. c #000212",
/* pixels */
"                                                                                                ",
"                                                                                                ",
"                                                                                                ",
"                                                                                                ",
"                                . X o O + + + + + + + + O o X .                                 ",
"                                . X o O + + + + + + + + O o X .                                 ",
"                                . X o O + + + + + + + + O o X .                                 ",
"                        @ # $ $ % & * * * * * * * * * * * * * % $ $ # @                         ",
"                      @ = % - ; : > * * * * * * * * * * * * * : ; - % = @                       ",
"                    @ = % : , < 1 2 * * * * * * * * * * * * * 1 < , : % = @                     ",
"                  @ = 3 4 5 6 7 8 9 * * * * * * * * * * * * * 8 7 6 5 4 3 = @                   ",
"                @ = 3 : 5 2 9 * * * * * * * * * * * * * * * * * * * 2 5 : 3 = @                 ",
"              @ = % 4 5 0 9 * * * * * * * * * * * * * * * * * * * * * 0 5 4 % = @               ",
"              # % : 5 2 9 * * * * * * * * * * * * * * * * * * * * * * * 2 5 : % #               ",
"              $ - , 6 * * * * * * * * * * * * * * * * * * * * * * * * * * 6 , - $               ",
"              $ ; < 7 * * * * * * * * * * * * * * * * * * * * * * * * * * * < ; $               ",
"              $ ; q 7 * * * * * * * * * * * * * * * * * * * * * * * * * * * q ; $               ",
"              $ ; q 7 * * * * * w e r t * * * * * * * * y r e u * * * * * * q ; $               ",
"        i i i p a s 8 * * * * d e f g h w * * * * * * j k g f l z * * * * * s a p i i i         ",
"        x x x * * * * * * * * c v b n m M * * * * * * M m n b v c * * * * * o , N x x x         ",
"        B B B * * * * * * * * V C Z A S D * * * * * * D S A Z C V * * * * * * * * B B B         ",
"        F F F * * * * * * * * G H J K L P * * * * * * I U K J Y T * * * * * * * * F F F         ",
"        + + + * * * * * * * * * R E M W * * * * * * * * Q M E ! * * * * * * * * * + + +         ",
"        + + + * * * * * * * * * * * * * * * * * * * * * * * * * * * * * * * * * * + + +         ",
"        + + + * * * * * * * * * * * * * * * * * * * * * * * * * * * * * * * * * * + + +         ",
"        + + + * * * * * * * * * * * * * * * * * * * * * * * * * * * * * * * * * * + + +         ",
"        + + + * * * * * * * * * * * * * * * * * * * * * * * * * * * * * * * * * * + + +         ",
"        + + + * * * * * * * ~ M ^ / ( * * * ) M M ) * * * ( / ^ M ~ * * * * * * * + + +         ",
"        + + + * * * * * * * _ ` V ' ] * * * r ` ` r * * * ] ' V ` _ * * * * * * * + + +         ",
"        + + + * * * * * * V [ { } |  ...E X.K { { K X.E .. .| } { [ V * * * * * * + + +         ",
"        + + + * * * * * o._ _ * * * * _ _ _ * * * * _ _ _ _ * * * _ _ o.* * * * * + + +         ",
"        + + + * * * * * O.+.~ * * * * @.#.O.* * * * O.#.@.$.* * * ~ +.O.* * * * * + + +         ",
"        + + + * * * * * * * * * * * * * * * * * * * * * * * * * * * * * * * * * * + + +         ",
"        + + + * * * * * * * * * * * * * * * * * * * * * * * * * * * * * * * * * * + + +         ",
"        + + + * * * * * * * * * * * * * * * * * * * * * * * * * * * * * * * * * * + + +         ",
"        + + + * * * * * * * * * * * * * * * * * * * * * * * * * * * * * * * * * * + + +         ",
"        + + + * * * * * * 2 * * * * * * * * * %.%.* * * * * * * * * 2 * * * * * * + + +         ",
"        + + + * * * * * &.5 0 * * * * * * * x *.*.x * * * * * * * 0 5 &.* * * * * + + +         ",
"        + + + * * * * =.-.: < ;.* * * * * N :.= = :.N * * * * * ;.< : -.=.* * * * + + +         ",
"        + + + * * * * . >.% 4 q * * * * * ,.<.    <.,.* * * * * q 4 % >.. * * * * + + +         ",
"        + + + * * * * # @ $ 3 1.* * * * * = @     @ = * * * * * 1.3 $ @ # * * * * + + +         ",
"        + + + 9 1 2.>.    # 3.4.6 F 5., 6.#         # 6., 5.F 6 4.3.#     >.2.1 9 + + +         ",
"        + + + 9 1 2.>.    # 3.4.6 F 5., 6.#         # 6., 5.F 6 4.3.#     >.2.1 9 + + +         ",
"        + + + 9 1 2.>.    # 3.4.6 F 5., 6.#         # 6., 5.F 6 4.3.#     >.2.1 9 + + +         ",
"                                                                                                ",
"                                                                                                ",
"                                                                                                ",
"                                                                                                "
};
