/* XPM */
static char *result[] = {
/* columns rows colors chars-per-pixel */
"48 48 8 1 ",
"  c black",
". c #FFEC00",
"X c white",
"o c #554F00",
"O c #393500",
"+ c #1C1A00",
"@ c #AA9D00",
"# c #CCBD00",
/* pixels */
"                                                ",
"                                                ",
"                                                ",
"                                                ",
"                                                ",
"                                                ",
"                                                ",
"                ................                ",
"                ................                ",
"            ........................            ",
"            ........................            ",
"          ............................          ",
"          ............................          ",
"        ................................        ",
"       ..................................       ",
"       ..................................       ",
"       ..................................       ",
"       ..................................       ",
"      .........................    .......      ",
"      ........................      ......      ",
"      ........................  XX  ......      ",
"      ........................  XX  ......      ",
"      ........................      ......      ",
"      .........................    .......      ",
"      ................o  o................      ",
"      ................o  o................      ",
"      ................o  o................      ",
"      ................O  O................      ",
"      ...............+     o..............      ",
"      ..............o      o..............      ",
"      ..............o      o..............      ",
"      ..............o      o..............      ",
"      ..............o      o..............      ",
"       .............O      O.............       ",
"       .............        .............       ",
"       ............          ............       ",
"       ...........@          @...........       ",
"        ..........@          @..........        ",
"          ........@          @........          ",
"            ......#          #........          ",
"            ......            ......            ",
"            ......            ......            ",
"                                                ",
"                                                ",
"                                                ",
"                                                ",
"                                                ",
"                                                "
};
