/* XPM */
static char *result[] = {
/* columns rows colors chars-per-pixel */
"48 48 134 2 ",
"   c black",
".  c #00010B",
"X  c #000527",
"o  c #000842",
"O  c #00094F",
"+  c #000A52",
"@  c #000001",
"#  c #000002",
"$  c #000004",
"%  c #00020E",
"&  c #000529",
"*  c #001EFF",
"=  c #000105",
"-  c #000316",
";  c #000318",
":  c #000420",
">  c #000634",
",  c #000630",
"<  c #000635",
"1  c #00073A",
"2  c #000843",
"3  c #00020F",
"4  c #00041E",
"5  c #000633",
"6  c #000845",
"7  c #00094B",
"8  c #00094C",
"9  c #00094E",
"0  c #000846",
"q  c #000636",
"w  c #1F39FF",
"e  c #2E46FF",
"r  c #1E39FF",
"t  c #1B36FF",
"y  c #8D9AFF",
"u  c #D3D8FF",
"i  c #D0D5FF",
"p  c #8693FF",
"a  c #7686FF",
"s  c #7D8CFF",
"d  c #000109",
"f  c #00020D",
"g  c #00041F",
"h  c #000739",
"j  c #324BFF",
"k  c #9CA8FF",
"l  c #EEF0FF",
"z  c #E7EAFF",
"x  c #C3C9FF",
"c  c #2F48FF",
"v  c #122EFF",
"b  c #5E71FF",
"n  c #AAB4FF",
"m  c #B8C1FF",
"M  c #687AFF",
"N  c #132FFF",
"B  c #000422",
"V  c #445AFF",
"C  c #D6DBFF",
"Z  c #F0F2FF",
"A  c #FAFBFF",
"S  c #F3F5FF",
"D  c #DBDFFF",
"F  c #BFC6FF",
"G  c #4056FF",
"H  c #253FFF",
"J  c #2640FF",
"K  c #000425",
"L  c #000740",
"P  c #D4D9FF",
"I  c #EDEFFF",
"U  c #F6F7FF",
"Y  c #F0F1FF",
"T  c #D9DDFF",
"R  c #BEC5FF",
"E  c #000950",
"W  c #324AFF",
"Q  c #97A3FF",
"!  c #C9CFFF",
"~  c #E1E4FF",
"^  c #DCE0FF",
"/  c #BCC3FF",
"(  c #8B99FF",
")  c #5D70FF",
"_  c #A3AEFF",
"`  c #AFB8FF",
"'  c #6577FF",
"]  c #8290FF",
"[  c #C0C8FF",
"{  c #7E8DFF",
"}  c #6F80FF",
"|  c #7282FF",
" . c #1D38FF",
".. c #2C44FF",
"X. c #2B44FF",
"o. c #1A35FF",
"O. c #BDC5FF",
"+. c #BDC4FF",
"@. c #B7BFFF",
"#. c #B0BAFF",
"$. c #BBC3FF",
"%. c #D5DAFF",
"&. c #DADEFF",
"*. c #C6CCFF",
"=. c #B8C0FF",
"-. c #E1E5FF",
";. c #E5E8FF",
":. c #E0E4FF",
">. c #D2D8FF",
",. c #C5CCFF",
"<. c #BEC6FF",
"1. c #CBD1FF",
"2. c #D1D7FF",
"3. c #D7DCFF",
"4. c #CDD3FF",
"5. c #E6E9FF",
"6. c #E4E7FF",
"7. c #DEE2FF",
"8. c #000631",
"9. c #000426",
"0. c #000215",
"q. c #00031A",
"w. c #000214",
"e. c #000844",
"r. c #000210",
"t. c #000107",
"y. c #000211",
"u. c #000106",
"i. c #00052D",
"p. c #00031C",
"a. c #00010D",
"s. c #00052B",
"d. c #000949",
"f. c #000212",
/* pixels */
"                                                                                                ",
"                                                                                                ",
"                                                                                                ",
"                                                                                                ",
"                                . X o O + + + + + + + + O o X .                                 ",
"                                . X o O + + + + + + + + O o X .                                 ",
"                                . X o O + + + + + + + + O o X .                                 ",
"                        @ # $ $ % & * * * * * * * * * * * * * % $ $ # @                         ",
"                      @ = % - ; : > * * * * * * * * * * * * * : ; - % = @                       ",
"                    @ = % : , < 1 2 * * * * * * * * * * * * * 1 < , : % = @                     ",
"                  @ = 3 4 5 6 7 8 9 * * * * * * * * * * * * * 8 7 6 5 4 3 = @                   ",
"                @ = 3 : 5 2 9 * * * * * * * * * * * * * * * * * * * 2 5 : 3 = @                 ",
"              @ = % 4 5 0 9 * * * * * * * * * * * * * * * * * * * * * 0 5 4 % = @               ",
"              # % : 5 2 9 * * * * * * * * * * * * * * * * * * * * * * * 2 5 : % #               ",
"              $ - , 6 * * * * * * * * * * * * * * * * * * * * * * * * * * 6 , - $               ",
"              $ ; < 7 * * * * * * * * * * * * * * * * * * * * * * * * * * * < ; $               ",
"              $ ; q 7 * * * * * w e e r * * * * * * * * t e e t * * * * * * q ; $               ",
"              $ ; q 7 * * * * * y u i p * * * * * * * * a i u s * * * * * * q ; $               ",
"        d d d f g h 8 * * * j k u l z x y c * * * * v b n z l m M N * * * * h g f d d d         ",
"        B B B * * * * * * * V C Z A S D F G * * * * H F D S A Z C J * * * * o , K B B B         ",
"        L L L * * * * * * * V P I U Y T R G * * * * H R T Y U I P J * * * * * * * L L L         ",
"        E E E * * * * * * * W Q ! ~ ^ / ( c * * * * v ) _ ^ ~ ` ' v * * * * * * * E E E         ",
"        + + + * * * * * * * * * ] [ F { * * * * * * * * } F [ | * * * * * * * * * + + +         ",
"        + + + * * * * * * * * *  ...X. .* * * * * * * * o.X...o.* * * * * * * * * + + +         ",
"        + + + * * * * * * * * * * * * * * * * * * * * * * * * * * * * * * * * * * + + +         ",
"        + + + * * * * * * * * * * * * * * * * * * * * * * * * * * * * * * * * * * + + +         ",
"        + + + * * * * * * * * * * * * * * * * * * * * * * * * * * * * * * * * * * + + +         ",
"        + + + * * * * * * * O.F +.@.#.* * * $.F F $.* * * #.@.+.F O.* * * * * * * + + +         ",
"        + + + * * * * * * * %.&.P *.=.* * * i &.&.i * * * =.*.P &.%.* * * * * * * + + +         ",
"        + + + * * * * * * P -.;.:.>.,.<.[ 1.^ ;.;.^ 1.[ <.,.>.:.;.-.P * * * * * * + + +         ",
"        + + + * * * * * 2.%.%.* * * * %.%.%.* * * * %.%.%.%.* * * %.%.2.* * * * * + + +         ",
"        + + + * * * * * 3.4.O.* * * * 5.6.3.* * * * 3.6.5.7.* * * O.4.3.* * * * * + + +         ",
"        + + + * * * * * * * * * * * * * * * * * * * * * * * * * * * * * * * * * * + + +         ",
"        + + + * * * * * * * * * * * * * * * * * * * * * * * * * * * * * * * * * * + + +         ",
"        + + + * * * * * * * * * * * * * * * * * * * * * * * * * * * * * * * * * * + + +         ",
"        + + + * * * * * * * * * * * * * * * * * * * * * * * * * * * * * * * * * * + + +         ",
"        + + + * * * * * * 2 * * * * * * * * * 8.8.* * * * * * * * * 2 * * * * * * + + +         ",
"        + + + * * * * * 9.5 0 * * * * * * * B 0.0.B * * * * * * * 0 5 9.* * * * * + + +         ",
"        + + + * * * * q.w.: < e.* * * * * K r.= = r.K * * * * * e.< : w.q.* * * * + + +         ",
"        + + + * * * * . t.% 4 q * * * * * y.u.    u.y.* * * * * q 4 % t.. * * * * + + +         ",
"        + + + * * * * # @ $ 3 i.* * * * * = @     @ = * * * * * i.3 $ @ # * * * * + + +         ",
"        + + + 9 1 p.t.    # a.s.6 E d., f.#         # f., d.E 6 s.a.#     t.p.1 9 + + +         ",
"        + + + 9 1 p.t.    # a.s.6 E d., f.#         # f., d.E 6 s.a.#     t.p.1 9 + + +         ",
"        + + + 9 1 p.t.    # a.s.6 E d., f.#         # f., d.E 6 s.a.#     t.p.1 9 + + +         ",
"                                                                                                ",
"                                                                                                ",
"                                                                                                ",
"                                                                                                "
};
