/* XPM */
static char *result[] = {
/* columns rows colors chars-per-pixel */
"48 48 8 1 ",
"  c black",
". c #FFEC00",
"X c white",
"o c #CCBD00",
"O c #AA9D00",
"+ c #393500",
"@ c #554F00",
"# c #1C1A00",
/* pixels */
"                                                ",
"                                                ",
"                                                ",
"                                                ",
"                                                ",
"                                                ",
"               ...............                  ",
"           .......................              ",
"          .........................             ",
"          .........................             ",
"        .............................           ",
"        .............................           ",
"      ...................    ..........         ",
"      ..................      .........         ",
"      ..................  XX  .........         ",
"      ..................  XX  .........         ",
"      ..................      ...........       ",
"      ...................    ............       ",
"        oOOO.............................       ",
"             ............................       ",
"              +@@@@@.....................       ",
"                    .....................       ",
"                    +@@@.................       ",
"                        .................       ",
"                        .................       ",
"                    +@@@.................       ",
"                   #.....................       ",
"              +@@@@......................       ",
"             ............................       ",
"        oOOO.............................       ",
"      ...................................       ",
"      ...................................       ",
"      .................................         ",
"      .................................         ",
"      .................................         ",
"      .................................         ",
"         ............................           ",
"         ............................           ",
"          .........................             ",
"          .........................             ",
"           .......................              ",
"               ...............                  ",
"                                                ",
"                                                ",
"                                                ",
"                                                ",
"                                                ",
"                                                "
};
