/* XPM */
static char *result[] = {
/* columns rows colors chars-per-pixel */
"48 48 8 1 ",
"  c black",
". c #FFEC00",
"X c #CCBD00",
"o c #AA9D00",
"O c #393500",
"+ c #554F00",
"@ c #1C1A00",
"# c white",
/* pixels */
"                                                ",
"                                                ",
"                                                ",
"                                                ",
"                                                ",
"                                                ",
"            ......            ......            ",
"            ......            ......            ",
"          ........X          X......            ",
"          ........o          o........          ",
"        ..........o          o..........        ",
"       ...........o          o...........       ",
"       ............          ............       ",
"       .............        .............       ",
"       .............O      O.............       ",
"      ..............+      +..............      ",
"      ..............+      +..............      ",
"      ..............+      +..............      ",
"      ..............+      +..............      ",
"      ..............+     @...............      ",
"      ................O  O................      ",
"      ................+  +................      ",
"      ................+  +................      ",
"      ................+  +................      ",
"      .......    .........................      ",
"      ......      ........................      ",
"      ......  ##  ........................      ",
"      ......  ##  ........................      ",
"      ......      ........................      ",
"      .......    .........................      ",
"       ..................................       ",
"       ..................................       ",
"       ..................................       ",
"       ..................................       ",
"        ................................        ",
"          ............................          ",
"          ............................          ",
"            ........................            ",
"            ........................            ",
"                ................                ",
"                ................                ",
"                                                ",
"                                                ",
"                                                ",
"                                                ",
"                                                ",
"                                                ",
"                                                "
};
